<?xml version="1.0" encoding="UTF-8" standalone="no"?>
<!DOCTYPE svg PUBLIC "-//W3C//DTD SVG 1.1//EN" "http://www.w3.org/Graphics/SVG/1.1/DTD/svg11.dtd">
<svg width="100%" height="100%" viewBox="0 0 964 265" version="1.1" xmlns="http://www.w3.org/2000/svg" xmlns:xlink="http://www.w3.org/1999/xlink" xml:space="preserve" xmlns:serif="http://www.serif.com/" style="fill-rule:evenodd;clip-rule:evenodd;stroke-linejoin:round;stroke-miterlimit:2;">
    <g transform="matrix(1,0,0,1,-54.4519,-51.2583)">
        <g id="logo">
            <g id="textmark">
                <path id="a" d="M957.64,143.498c8.83,-0.965 20.5,1.709 28.46,5.524c13.1,6.29 23.19,17.476 28.12,31.145c1.55,4.448 2.38,9.035 2.8,13.72c0.7,7.892 1.28,48.889 -1.22,53.588c-1.52,2.846 -4.21,5.141 -7.3,6.084c-3.41,1.041 -7.79,0.844 -10.92,-0.963c-3.42,-1.977 -5.25,-5.351 -6.2,-9.062c-0.05,-0.22 -0.1,-0.441 -0.16,-0.662c-6.48,5.123 -9.58,7.015 -17.31,9.588c-53.85,14.501 -89.607,-47.94 -55.84,-89.747c9.79,-12.117 24.23,-17.992 39.57,-19.215Zm-0.17,25.844c16.34,-2.096 31.3,9.391 33.51,25.716c2.2,16.326 -9.19,31.37 -25.5,33.681c-16.46,2.334 -31.68,-9.183 -33.9,-25.663c-2.23,-16.479 9.39,-31.619 25.89,-33.734Z" style="fill:#3c4363;"/>
                <g id="l" transform="matrix(1,0,0,1,-99,-436)">
                    <path d="M954.833,525.534c2.287,0.074 4.592,0.518 6.639,1.567c3.049,1.562 5.222,4.096 6.163,7.411c2.111,7.435 0.943,17.268 0.937,25.05c-0.011,13.492 -1.572,88.767 1.247,96.475c4.212,11.518 12.845,6.147 20.981,10.048c2.987,1.433 5.312,3.795 6.315,6.993c1.127,3.594 0.522,7.465 -1.37,10.683c-2.403,4.089 -5.485,5.374 -9.945,6.439c-9.814,0.589 -18.38,-0.259 -26.744,-5.836c-18.632,-12.424 -16.692,-34.878 -16.643,-54.208l0.091,-38.924l-0.103,-33.616c-0.05,-13.114 -3.769,-29.11 12.432,-32.082Z" style="fill:#3c4363;fill-rule:nonzero;"/>
                </g>
                <path id="g" d="M757.045,142.849c7.791,-0.78 15.66,-0.057 23.178,2.128c14.132,4.033 26.054,13.569 33.093,26.469c2.936,5.507 4.878,11.488 5.738,17.669c1.289,8.719 0.934,24.937 0.858,34.369c-0.094,11.631 0.614,28.151 -0.374,39.447c-0.403,4.958 -1.338,9.858 -2.791,14.615c-4.207,13.637 -13.716,25.011 -26.391,31.568c-50.84,26.033 -103.543,-29.509 -71.379,-42.419c14.974,-0.689 13.121,7.081 21.137,15.336c10.838,11.16 34.174,10.276 44.615,-0.989c10.765,-11.615 8.89,-24.972 8.673,-39.113c-7.206,6.557 -14.201,10.358 -24.136,11.753c-51.991,7.297 -80.663,-49.514 -51.092,-90.04c9.228,-12.647 23.283,-18.884 38.871,-20.793Zm2.271,25.801c16.577,-2.251 31.822,9.411 33.986,25.999c2.164,16.588 -9.579,31.771 -26.178,33.848c-16.476,2.062 -31.522,-9.575 -33.67,-26.04c-2.149,-16.465 9.409,-31.572 25.862,-33.807Z" style="fill:#3c4363;"/>
                <g id="n" transform="matrix(1,0,0,1,-99,-436)">
                    <path d="M727.222,580.014c8.027,-0.679 13.727,-0.647 21.634,1.536c12.938,3.559 23.925,12.124 30.533,23.803c2.906,5.079 4.886,10.633 5.848,16.404c1.141,6.973 1.787,53.923 0.02,59.57c-0.977,3.118 -3.212,5.929 -6.145,7.414c-3.591,1.817 -8.13,1.615 -11.811,0.157c-3.325,-1.317 -5.524,-4.086 -6.571,-7.456c-1.458,-4.69 -1.01,-9.955 -0.96,-14.811c0.128,-12.327 2.366,-37.245 -2.886,-47.926c-3.392,-6.897 -8.638,-10.262 -15.632,-12.711c-5.101,-1.069 -11.545,-1.068 -16.48,0.733c-17.478,6.38 -16.296,24.574 -16.204,39.268l0.132,21.364c0.04,8.115 0.961,19.235 -8.748,22.18c-3.831,1.173 -7.98,0.663 -11.414,-1.402c-3.141,-1.932 -5.305,-5.714 -5.55,-9.312c-1.049,-12.51 0.396,-25.892 -0.291,-38.406c-1.721,-31.372 12.279,-54.623 44.525,-60.405Z" style="fill:#3c4363;fill-rule:nonzero;"/>
                </g>
                <g id="i">
                    <g transform="matrix(1,0,0,1,-99,-436)">
                        <path d="M642.362,581.788c10.937,-0.679 16.239,3.806 16.116,15.419c-0.295,27.664 0.995,56.53 -0.62,84.167c-0.203,3.474 -5.332,6.885 -8.132,8.388c-2.351,0.445 -4.887,0.606 -7.233,0.063c-3.513,-0.813 -6.52,-2.936 -8.318,-6.086c-1.217,-2.132 -1.335,-4.872 -1.503,-7.286c-0.674,-9.714 -1.069,-81.27 0.747,-86.64c1.435,-4.244 5.087,-6.321 8.943,-8.025Z" style="fill:#3c4363;fill-rule:nonzero;"/>
                    </g>
                    <g transform="matrix(1,0,0,1,-99,-436)">
                        <path d="M642.018,530.428c5.446,-1.35 11.196,0.354 15.026,4.453c3.831,4.1 5.142,9.952 3.425,15.294c-1.716,5.341 -6.19,9.335 -11.692,10.436c-8.242,1.65 -16.294,-3.585 -18.131,-11.788c-1.837,-8.203 3.213,-16.371 11.372,-18.395Z" style="fill:#3c4363;fill-rule:nonzero;"/>
                    </g>
                </g>
                <g id="r" transform="matrix(1,0,0,1,-99,-436)">
                    <path d="M583.687,580.017c10.747,-1.185 33.259,-0.02 33.061,15.155c0.278,2.672 -1.701,8.236 -4.226,9.707c-12.425,7.24 -26.239,-6.158 -39.048,6.81c-9.969,10.094 -8.063,24.293 -8.18,37.223c-0.093,10.371 0.131,20.552 -0.049,30.848c-4.48,13.794 -22.225,14.33 -25.425,0.324c-1.28,-6.749 -0.045,-14.622 -0.384,-21.323c-1.841,-36.404 0.195,-70.864 44.251,-78.744Z" style="fill:#3c4363;fill-rule:nonzero;"/>
                </g>
                <g id="f" transform="matrix(1,0,0,1,-99,-436)">
                    <path d="M506.029,521.231l0.795,-0.085c9.677,-0.962 21.271,-0.043 29.279,6.455c4.625,3.752 5.47,14.371 0.994,18.173c-7.258,5.975 -16.648,0.661 -24.31,0.949c-22.65,0.851 -25.042,18.812 -25.052,35.883c8.755,0.17 32.48,-1.942 36.131,3.681c17.894,27.564 -29.272,21.873 -36.046,21.879l-0.07,54.501c0.124,6.734 1.406,17.881 -3.081,23.149c-6.373,7.668 -21.298,4.708 -22.533,-5.73c-0.935,-7.907 -0.539,-16.729 -0.537,-24.722l0.053,-47.245c-8.883,-0.061 -22.903,1.657 -23.178,-12.08c-0.289,-14.448 12.683,-13.565 23.184,-13.411c-0.496,-31.529 10.83,-55.648 44.371,-61.397Z" style="fill:#3c4363;fill-rule:nonzero;"/>
                </g>
            </g>
            <g id="mark">
                <g transform="matrix(1,0,0,1,-99,-436)">
                    <path d="M291.076,562.986c8.094,-0.864 15.39,4.909 16.411,12.985c1.021,8.075 -4.61,15.482 -12.664,16.659c-5.351,0.783 -10.707,-1.387 -14.004,-5.673c-3.298,-4.286 -4.023,-10.02 -1.895,-14.991c2.127,-4.972 6.775,-8.406 12.152,-8.98Z" style="fill:#3c4363;fill-rule:nonzero;"/>
                </g>
                <g transform="matrix(1,0,0,1,-99,-436)">
                    <path d="M344.31,582.706c0.271,-0.003 1.595,-0.034 1.724,0.012c32.498,11.435 36.17,18.89 8.617,38.025c-8.184,4.576 -25.696,11.382 -23.235,-7.236c1.169,-8.846 5.744,-25.561 12.894,-30.801Z" style="fill:#fd8886;fill-rule:nonzero;"/>
                </g>
                <g transform="matrix(1,0,0,1,-99,-436)">
                    <path d="M212.148,666.765c30.658,1.198 60.279,6.752 87.955,-7.93c4.167,-2.205 8.133,-4.771 11.852,-7.669c14.729,-11.308 9.809,-10.044 28.343,-8.02c4.943,0.539 16.608,-8.981 21.943,-4.597c2.193,6.711 -4.377,13.652 -8.317,18.638c-14.732,18.519 -34.752,32.115 -57.399,38.98c-20.72,6.417 -43.6,7.579 -65.02,3.458c-8,-1.539 -17.966,-5.247 -26.007,-4.554c-8.795,0.683 -16.651,5.758 -20.889,13.494c-6.864,12.356 0.627,24.288 -13.186,29.72c-6.879,2.705 -17.118,-2.243 -17.73,-9.448c-2.212,-26.008 10.933,-46.943 33.714,-57.448c10.852,-1.982 10.857,-3.932 24.741,-4.624Z" style="fill:#fd8886;fill-rule:nonzero;"/>
                </g>
                <g transform="matrix(1,0,0,1,-99,-436)">
                    <path d="M187.407,671.389c-6.236,-7.916 -10.781,-15.233 -14.762,-24.566c-12.033,-27.883 -12.286,-59.446 -0.702,-87.518c11.64,-28.743 34.288,-51.64 62.902,-63.592c52.184,-21.307 113.948,-1.729 136.004,51.815c3.922,9.522 9.068,25.509 -4.708,29.874c-21.962,6.959 -23.381,-14.809 -31.587,-27.668c-6.03,-9.262 -14.442,-16.731 -24.353,-21.622c-17.822,-8.855 -39.039,-9.674 -57.788,-3.311c-20.735,6.894 -37.784,21.907 -47.246,41.604c-11.817,24.509 -11.783,52.255 2.435,75.778c6.955,11.505 14.532,12.875 4.546,24.582c-13.884,0.692 -13.889,2.642 -24.741,4.624Z" style="fill:url(#_Linear1);fill-rule:nonzero;"/>
                </g>
            </g>
        </g>
    </g>
    <defs>
        <linearGradient id="_Linear1" x1="0" y1="0" x2="1" y2="0" gradientUnits="userSpaceOnUse" gradientTransform="matrix(179.104,-130.698,130.698,179.104,162.213,635.144)"><stop offset="0" style="stop-color:#a37ffc;stop-opacity:1"/><stop offset="1" style="stop-color:#9396fd;stop-opacity:1"/></linearGradient>
    </defs>
</svg>
