<?xml version="1.0" encoding="UTF-8" standalone="no"?>
<!DOCTYPE svg PUBLIC "-//W3C//DTD SVG 1.1//EN" "http://www.w3.org/Graphics/SVG/1.1/DTD/svg11.dtd">
<svg width="100%" height="100%" viewBox="0 0 275 275" version="1.1" xmlns="http://www.w3.org/2000/svg" xmlns:xlink="http://www.w3.org/1999/xlink" xml:space="preserve" xmlns:serif="http://www.serif.com/" style="fill-rule:evenodd;clip-rule:evenodd;stroke-linejoin:round;stroke-miterlimit:2;">
    <path d="M61.39,196.504c-0.345,-0.586 -0.779,-1.135 -1.2,-1.67c-6.971,-8.862 -12.037,-18.492 -15.91,-29.047c-10.292,-28.07 -8.953,-59.087 3.72,-86.165c12.871,-28.345 36.654,-50.284 65.944,-60.831c26.098,-9.537 57.312,-8.668 82.541,3.121c22.861,10.541 40.59,29.741 49.281,53.367c2.195,6.032 5.506,13.789 2.368,20.058c-3.528,7.046 -12.631,9.745 -19.974,7.491c-9.715,-2.983 -10.774,-8.995 -14.041,-17.5c-1.291,-3.317 -2.889,-6.505 -4.774,-9.523c-17.588,-28.248 -53.447,-36.07 -83.855,-25.673c-49.4,16.892 -71.333,78.652 -40.917,121.802c2.22,3.15 5.491,5.977 6.82,9.675c-0.702,5.025 -2.039,6.555 -5.324,10.184c-4.348,-0.279 -12.765,1.185 -16.968,2.379c-1.77,0.503 -6.216,2.123 -7.711,2.332Z" style="fill:url(#_Linear1);fill-rule:nonzero;"/>
    <path d="M86.069,191.793c1.445,0.152 3.191,0.232 4.649,0.225c13.908,-0.07 27.901,1.865 41.753,1.852c19.611,-0.02 39.921,-6.285 55.128,-18.856c4.554,-3.181 7.912,-9.358 14.219,-8.425c3.11,0.459 6.228,1.554 9.261,1.514c6.467,-0.142 12.984,-2.286 18.61,-5.465c3.517,-2.225 6.552,-1.168 7.147,3.108c0.425,3.061 -0.824,4.88 -2.432,7.413c-29.027,45.774 -87.366,63.112 -138.427,49.286c-11.602,-3.142 -20.582,-4.491 -30.574,3.23c-9.913,7.66 -10.134,16.16 -10.991,27.448c-0.836,11.024 -18.197,14.962 -24.289,5.705c-3.821,-5.068 -2.794,-9.975 -2.427,-15.851c0.074,-1.194 0.223,-2.445 0.426,-3.648c2.367,-14.035 9.793,-27.757 21.38,-36.273c2.31,-1.646 9.194,-5.771 11.888,-6.552c1.495,-0.209 5.941,-1.829 7.711,-2.332c4.203,-1.194 12.62,-2.658 16.968,-2.379Z" style="fill:#fd8886;fill-rule:nonzero;"/>
    <path d="M218.807,107.758c5.202,-0.535 20.077,8.34 24.881,11.192c12.539,7.443 -9.275,23.239 -15.571,26.99c-0.346,0.228 -0.7,0.443 -1.061,0.645c-4.213,2.368 -10.839,5.711 -15.778,4.213c-5.559,-1.644 -7.186,-6.887 -5.809,-12.14c2.141,-8.17 3.851,-16.862 7.144,-24.667c1.314,-3.113 3.261,-4.748 6.194,-6.233Z" style="fill:#fd8886;fill-rule:nonzero;"/>
    <path d="M164.296,88.088c8.177,-1.31 15.861,4.279 17.132,12.463c1.271,8.183 -4.356,15.84 -12.545,17.071c-8.134,1.223 -15.727,-4.357 -16.989,-12.484c-1.262,-8.128 4.28,-15.748 12.402,-17.05Z" style="fill:#3c4364;fill-rule:nonzero;"/>
    <defs>
        <linearGradient id="_Linear1" x1="0" y1="0" x2="1" y2="0" gradientUnits="userSpaceOnUse" gradientTransform="matrix(177.583,-135.412,135.412,177.583,37.2166,163.949)"><stop offset="0" style="stop-color:#a37ffc;stop-opacity:1"/><stop offset="1" style="stop-color:#9396fd;stop-opacity:1"/></linearGradient>
    </defs>
</svg>
