<?xml version="1.0" encoding="UTF-8" standalone="no"?>
<!DOCTYPE svg PUBLIC "-//W3C//DTD SVG 1.1//EN" "http://www.w3.org/Graphics/SVG/1.1/DTD/svg11.dtd">
<svg width="100%" height="100%" viewBox="0 0 800 300" version="1.1" xmlns="http://www.w3.org/2000/svg" xmlns:xlink="http://www.w3.org/1999/xlink" xml:space="preserve" xmlns:serif="http://www.serif.com/" style="fill-rule:evenodd;clip-rule:evenodd;stroke-linejoin:round;stroke-miterlimit:2;">
    <g>
        <path d="M671.801,105.628c11.494,-1.694 26.59,2.496 36.399,8.776c12.178,7.868 20.751,20.231 23.85,34.395c2.177,10.124 0.879,24.495 1.195,35.226c-0.09,6.875 0.385,13.812 -0.134,20.669c-0.441,5.827 -4.491,10.111 -10.075,11.269c-3.589,0.719 -7.315,-0.024 -10.353,-2.065c-3.464,-2.279 -4.617,-5.283 -5.387,-9.117c-5.886,4.605 -8.382,6.428 -15.391,9.042c-3.419,1.159 -6.955,1.94 -10.544,2.329c-30.78,3.175 -57.366,-17.988 -60.02,-49.075c-2.735,-32.026 18.177,-58.414 50.46,-61.449Zm3.656,25.526c16.447,-1.003 30.619,11.459 31.728,27.899c1.108,16.44 -11.263,30.692 -27.696,31.906c-16.582,1.224 -30.992,-11.284 -32.11,-27.874c-1.119,-16.589 11.482,-30.919 28.078,-31.931Z" style="fill:#100d0d;"/>
        <path d="M570.946,51.667c6.811,-0.339 13.43,3.491 14.169,10.773c0.707,6.967 0.39,14.458 0.392,21.498l0.007,63.069c0,9.534 -0.329,19.589 0.063,29.082c0.963,23.303 24.177,6.837 28.688,23.845c0.875,3.358 0.362,6.926 -1.423,9.901c-2.314,3.875 -5.268,5.191 -9.417,6.254c-9.786,0.967 -18.665,-0.135 -27.049,-5.561c-19.086,-12.353 -16.914,-34.29 -16.895,-53.802l0.007,-38.65l-0.036,-34.56c-0.013,-6.534 -0.171,-13.098 0.164,-19.621c0.37,-7.182 4.688,-10.84 11.33,-12.228Z" style="fill:#100d0d;fill-rule:nonzero;"/>
        <path d="M473.283,104.844c7.831,-1.708 22.61,1.361 30.174,4.759c13.272,5.856 23.638,16.795 28.77,30.362c4.487,11.959 4.054,30.679 3.652,43.682c-0.606,19.596 2.8,44.171 -5.486,62.164c-5.991,13.08 -16.963,23.223 -30.473,28.171c-26.178,9.707 -62.126,0.726 -73.669,-27.146c-3.366,-8.127 0.212,-15.032 8.404,-17.939c13.575,-2.546 14.306,7.841 21.244,14.87c11.173,11.321 33.675,10.875 44.765,-0.628c10.684,-11.082 8.864,-25.277 8.736,-39.407c-7.716,7.478 -14.997,10.927 -25.995,12.146c-52.342,5.8 -78.594,-52.582 -48.209,-91.508c9.048,-11.591 23.224,-18.073 38.087,-19.526Zm1.899,25.826c16.461,-2.312 31.692,9.121 34.069,25.573c2.377,16.451 -8.996,31.728 -25.438,34.169c-16.534,2.455 -31.915,-8.995 -34.305,-25.539c-2.39,-16.543 9.121,-31.879 25.674,-34.203Z" style="fill:#100d0d;"/>
        <path d="M348.679,105.631c23.354,-2.05 47.583,15.169 52.738,38.119c2.86,12.735 1.2,27.396 1.612,40.48c0.201,6.398 0.35,14.318 -0.187,20.657c-1.067,12.612 -19.463,15.54 -24.586,4.045c-1.879,-4.074 -1.443,-10.188 -1.421,-14.743l0.117,-24.434c0.023,-5.284 0.296,-13.503 -0.707,-18.433c-0.766,-3.815 -2.366,-7.414 -4.685,-10.539c-4.427,-5.929 -10.413,-8.459 -17.537,-9.509c-17.389,-0.728 -28.338,9.792 -28.327,27.396c0.002,3.709 -0.055,7.595 -0.054,11.323l0.102,24.275c0.022,5.629 0.639,12.978 -3.197,17.5c-7.563,8.898 -22.597,3.704 -22.793,-8.197c-0.18,-10.981 0.134,-22.139 -0.03,-33.14c-0.026,-1.795 0.108,-4.093 -0.008,-5.831c-2.119,-31.768 16.265,-56.373 48.963,-58.969Z" style="fill:#100d0d;fill-rule:nonzero;"/>
        <path d="M262.118,107.551c16.198,0.527 13.418,16.231 13.409,27.739l-0.024,28.963l0.022,25.983c0.005,11.137 2.355,24.242 -12.393,26.042c-16.209,-0.716 -13.617,-14.971 -13.609,-26.692l0.009,-26.162l-0.015,-27.417c-0.014,-12.239 -3.042,-26.236 12.601,-28.456Z" style="fill:#100d0d;fill-rule:nonzero;"/>
        <path d="M259.633,56.292c5.458,-1.12 11.097,0.784 14.76,4.982c3.663,4.198 4.784,10.042 2.936,15.299c-1.849,5.255 -6.382,9.111 -11.867,10.091c-8.332,1.49 -16.314,-3.995 -17.909,-12.308c-1.596,-8.313 3.788,-16.364 12.08,-18.064Z" style="fill:#100d0d;fill-rule:nonzero;"/>
        <path d="M205.805,105.635c12.769,-0.93 34.044,4.67 26.537,21.821c-4.31,9.846 -16.378,4.532 -23.372,3.985c-3.571,-0.252 -7.155,0.262 -10.511,1.507c-17.19,6.352 -16.151,23.66 -16.092,38.142l0.099,22.604c0.02,5.775 0.613,10.782 -1.786,16.043c-7.238,11.176 -24.059,7.372 -24.305,-6.824c-0.244,-14.095 0.239,-28.36 -0.039,-42.441c-0.598,-30.29 18.097,-52.98 49.469,-54.837Z" style="fill:#100d0d;fill-rule:nonzero;"/>
        <path d="M124.887,47.018c10.683,-1.264 32.174,1.357 32.198,15.838c-0.015,3.276 -1.323,6.414 -3.638,8.732c-7.613,7.554 -14.979,1.064 -22.969,0.843c-6.242,-0.173 -13.428,2.5 -17.797,7.091c-8.322,8.748 -8.039,17.981 -7.959,29.061c9.683,0.281 19.707,-0.679 29.342,0.395c9.903,1.104 13.846,13.832 7.348,20.92c-4.125,4.499 -10.249,4.323 -15.867,4.273c-6.897,-0.062 -13.88,-0.105 -20.802,0.092l-0.028,55.515c0.059,4.951 0.4,10.821 -0.2,15.688c-1.3,10.553 -14.994,14.112 -22.178,7.004c-1.672,-1.649 -2.796,-3.774 -3.219,-6.085c-0.8,-4.29 -0.495,-19.027 -0.496,-24.176l-0.009,-48.073c-6.27,0.034 -15.295,1.027 -19.613,-3.615c-2.224,-2.308 -3.805,-5.887 -3.568,-9.198c1.026,-14.311 13.285,-12.834 23.189,-12.713c-0.06,-4.978 -0.153,-9.613 0.389,-14.562c2.865,-26.152 19.962,-43.646 45.877,-47.03Z" style="fill:#100d0d;fill-rule:nonzero;"/>
    </g>
</svg>
